
<svg width="15360px" height="13097px" viewBox="0 0 292 249" version="1.1" xmlns="http://www.w3.org/2000/svg" xmlns:xlink="http://www.w3.org/1999/xlink">
    <!-- Generator: Sketch 49 (51002) - http://www.bohemiancoding.com/sketch -->
    <desc>Created with Sketch.</desc>
    <defs></defs>
    <g id="Page-1" stroke="none" stroke-width="1" fill="none" fill-rule="evenodd">
        <g id="logo" transform="translate(-8.690562, -17.247857)">
            <polygon id="Path" fill="#7DCE23" transform="translate(38.823178, 183.928293) rotate(30.000000) translate(-38.823178, -183.928293) " points="15.609319 170.646661 38.7620102 157.138737 62.037037 170.646661 62.037037 197.227613 38.823178 210.717849 15.609319 197.227613"></polygon>
            <polygon id="Path" fill="#4AB5A0" transform="translate(43.826165, 124.151598) rotate(30.000000) translate(-43.826165, -124.151598) " points="13.6081243 106.806183 43.7465413 89.1652377 74.0442055 106.806183 74.0442055 141.520113 43.8261649 159.137958 13.6081243 141.520113"></polygon>
            <polygon id="Path" fill="#348BA0" transform="translate(103.661888, 94.163289) rotate(30.000000) translate(-103.661888, -94.163289) " points="74.0442055 77.2143411 103.583846 59.9766173 133.27957 77.2143411 133.27957 111.134809 103.661888 128.349961 74.0442055 111.134809"></polygon>
            <polygon id="Path" fill="#2CB1E4" transform="translate(219.731183, 158.938036) rotate(30.000000) translate(-219.731183, -158.938036) " points="193.315412 143.773188 219.661578 128.349961 246.146953 143.773188 246.146953 174.12308 219.731183 189.526111 193.315412 174.12308"></polygon>
            <polygon id="Path" fill="#71CFF4" transform="translate(224.734170, 93.163679) rotate(30.000000) translate(-224.734170, -93.163679) " points="192.915173 74.9262143 224.650328 56.3780203 256.553166 74.9262143 256.553166 111.425432 224.73417 129.949337 192.915173 111.425432"></polygon>
            <polygon id="Path" fill="#2494D0" transform="translate(126.275388, 225.312159) rotate(30.000000) translate(-126.275388, -225.312159) " points="111.666667 216.887243 126.236895 208.318784 140.88411 216.887243 140.88411 233.748295 126.275388 242.305534 111.666667 233.748295"></polygon>
            <polygon id="Path" fill="#2494D0" transform="translate(101.060335, 251.302027) rotate(30.000000) translate(-101.060335, -251.302027) " points="86.4516129 242.877111 101.021841 234.308652 115.669056 242.877111 115.669056 259.738162 101.060335 268.295401 86.4516129 259.738162"></polygon>
            <polygon id="Path" fill="#2CB1E4" transform="translate(271.762246, 134.147701) rotate(30.000000) translate(-271.762246, -134.147701) " points="247.840785 119.426133 271.697914 105.958691 296.176822 120.172252 296.176822 148.141761 271.762246 162.336711 247.34767 148.141761"></polygon>
            <polygon id="Path" fill="#71CFF4" transform="translate(162.697133, 53.579111) rotate(30.000000) translate(-162.697133, -53.579111) " points="127.275986 33.1610804 162.603799 12.3951676 198.11828 33.1610804 198.11828 74.0243346 162.697133 94.7630553 127.275986 74.0243346"></polygon>
            <polygon id="Path" fill="#2494D0" transform="translate(166.099164, 193.124708) rotate(30.000000) translate(-166.099164, -193.124708) " points="136.481481 176.076643 166.021122 158.738114 195.716846 176.076643 195.716846 210.195477 166.099164 227.511302 136.481481 210.195477"></polygon>
            <polygon id="Path" fill="#E1E1E1" transform="translate(163.724541, 127.050468) rotate(30.000000) translate(-163.724541, -127.050468) " points="132.505903 108.516919 163.842928 91.0644973 194.943179 109.20947 194.943179 144.915226 163.92466 163.036438 132.906142 144.915226"></polygon>
            <polygon id="Path" fill="#4EB74F" transform="translate(101.860812, 164.735776) rotate(30.000000) translate(-101.860812, -164.735776) " points="67.2401434 144.912444 101.769588 124.751364 136.481481 144.912444 136.481481 184.585507 101.860812 204.720187 67.2401434 184.585507"></polygon>
        </g>
    </g>
</svg>
